<svg width="300" height="300" viewBox="0 0 190 190" xmlns="http://www.w3.org/2000/svg"><g fill="#fff" fill-rule="evenodd"><path d="M12 147H9.6L.2 170h2.3l8.3-20.8L19 170h2.4L12 147zm39.2 0h-2.4l-9.4 23h2.3l8.3-20.8 8.3 20.8h2.3l-9.4-23zm41.5 0h-2.4L81 170h2l8.3-20.8 8.3 20.8h2.3l-9.6-23zm-63 23l-9.3-23h2.3l8.3 21 8.3-20.7h2.3l-9.4 23h-2.4zm35 0v-23h2v21.2h11v1.8h-13zm55.7 0L106 150.4V170h-2v-23h2l14.3 19.5V147h2v23h-2zm6.6-11.4c0-7 5.2-11.8 11.7-11.8 3.6 0 6.4 1.6 8.3 4l-1.6 1c-1.4-2-4-3.2-6.7-3.2-5.3 0-9.5 4-9.5 10s4.2 10 9.5 10c2.7 0 5.3-1.3 6.7-3.3l1.7 1c-2 2.6-4.4 4-8 4-6.5 0-11.6-4.7-11.6-11.7zm40.4 11.4v-11H153v11h-2v-23h2v10.4h14.4V147h2v23h-2zm7.6 0v-23h14.6v2H177v8.4h12.4v1.8H177v9h12.6v1.8H175z"/><g transform="translate(45.6 17)"><path d="M98.2 52.8c-1.4-3.7-4.3-6.5-7.4-9-7.2-5.8-10.6-8-10.7-5.8 0 1.4 0 2.6-1 3.2l-2 .4c-1-.3-2-1.2-3.4-2.8-4.6-5-14.7-11.6-11.2-6.6 3.6 5 4 11.6-5.4 1.5-9.6-10-13.6-6.2-10-3.4 3.4 2.7 6.5 14-2.4 4.2-9-9.7-11.3-5-11.3-5C55 56.5 55 56.5 67 70.2c.8 1 1.6 1.7 2.4 2.5 3.3 3 7.6 4.7 12.3 4.7 10 0 18-8 18-18.2 0-2.2-.3-4.4-1-6.4zm-97-51V110h90L1.2 1.7z"/><circle cx="32.7" cy="17.1" r="2.1"/><circle cx="60.4" cy="17.7" r="5.3"/><circle cx="74.7" cy="28.3" r="1.1"/></g></g></svg>